<svg xmlns="http://www.w3.org/2000/svg" xmlns:xlink="http://www.w3.org/1999/xlink" viewBox="0 0 84.92 101.57"><defs><style>.cls-1{fill:url(#linear-gradient);}.cls-2{fill:url(#linear-gradient-2);}.cls-3{fill:none;stroke:#fff;stroke-miterlimit:10;stroke-width:7.17px;}.cls-4{fill:#fff;}</style><linearGradient id="linear-gradient" y1="50.79" x2="84.92" y2="50.79" gradientUnits="userSpaceOnUse"><stop offset="0" stop-color="#4b0081"/><stop offset="0.25" stop-color="#500081"/><stop offset="0.56" stop-color="#600080"/><stop offset="0.91" stop-color="#79007f"/><stop offset="1" stop-color="#81007f"/></linearGradient><linearGradient id="linear-gradient-2" x1="26.43" y1="25.93" x2="45.4" y2="25.93" xlink:href="#linear-gradient"/></defs><g id="Layer_2" data-name="Layer 2"><g id="Layer_1-2" data-name="Layer 1"><path class="cls-1" d="M84.92,100H62.82c-.63-.7-1.55-1.7-2.7-3s-2-2.29-2.51-2.88q-11.46,7.53-26.79,7.53-13.84,0-22.33-7.68T0,73.45a30.64,30.64,0,0,1,1.33-9.23A26.09,26.09,0,0,1,5.2,56.51a37.7,37.7,0,0,1,5.43-6,52.87,52.87,0,0,1,6.68-5.1,66.82,66.82,0,0,1-7.23-12.62,25.12,25.12,0,0,1-2-9.41c0-7,2.51-12.7,7.6-17S27.53,0,35.91,0s14.91,2.14,20,6.42,7.64,9.89,7.64,16.91a20.64,20.64,0,0,1-1.29,7.27,25.86,25.86,0,0,1-3.1,6,32.2,32.2,0,0,1-4.91,5.13,53.65,53.65,0,0,1-5.72,4.35C46.73,47.21,44.58,48.5,42,50q5.7,7.14,15.39,18.38a39,39,0,0,0,4-14.94H78.69c-.48,11.18-3.51,20.85-9.16,29Z"/><path class="cls-2" d="M45.4,23.47a9.22,9.22,0,0,1-3.29,6.87,50.67,50.67,0,0,1-9.71,6.57c-4-6-6-10.45-6-13.36A8.14,8.14,0,0,1,29,17.31,9.9,9.9,0,0,1,35.91,15a9.94,9.94,0,0,1,6.87,2.32A8,8,0,0,1,45.4,23.47Z"/><polyline class="cls-3" points="22.59 14.95 44.55 14.95 44.55 36.91"/><line class="cls-3" x1="44.55" y1="14.95" x2="25.3" y2="34.26"/><path class="cls-4" d="M29.86,90.69h0A19.14,19.14,0,0,0,10.72,71.55h0A19.14,19.14,0,0,0,29.86,52.41h0A19.14,19.14,0,0,0,49,71.55h0A19.14,19.14,0,0,0,29.86,90.69Z"/></g></g></svg>